<?xml version="1.0" standalone="no"?>
<!DOCTYPE svg PUBLIC "-//W3C//DTD SVG 20010904//EN"
 "http://www.w3.org/TR/2001/REC-SVG-20010904/DTD/svg10.dtd">
<svg version="1.0" xmlns="http://www.w3.org/2000/svg"
 width="1360.000000pt" height="1360.000000pt" viewBox="0 0 1360.000000 1360.000000"
 preserveAspectRatio="xMidYMid meet">
<metadata>
Created by potrace 1.14, written by Peter Selinger 2001-2017
</metadata>
<g transform="translate(0.000000,1360.000000) scale(0.100000,-0.100000)"
fill="#000000" stroke="none">
<path d="M6719 13583 c-2 -20 -10 -45 -44 -138 -44 -119 -52 -145 -62 -199 -8
-51 -7 -250 12 -2631 2 -297 7 -873 10 -1280 6 -856 11 -1134 19 -1155 3 -8 7
-27 10 -42 13 -77 79 -148 139 -148 22 0 110 31 125 45 4 3 9 32 17 100 4 33
9 76 11 95 3 19 7 60 9 90 6 62 6 509 0 1010 -2 184 -7 551 -10 815 -3 264 -7
656 -10 870 -13 1104 -17 1499 -20 1800 -2 292 -9 436 -21 456 -2 4 -6 23 -10
43 -3 20 -12 52 -20 71 -8 19 -14 36 -13 37 1 2 -4 21 -10 43 -6 22 -10 43
-11 48 0 4 -6 20 -14 36 -9 16 -12 31 -9 35 4 3 -17 6 -45 6 -29 0 -52 -3 -53
-7z"/>
<path d="M7522 11903 c-1 -87 -1 -162 -2 -168 -1 -5 -1 -44 -1 -85 1 -41 1
-82 1 -90 0 -8 0 -35 0 -60 0 -25 1 -49 1 -55 0 -5 -2 -97 -3 -203 -2 -105 1
-192 5 -192 5 0 5 -5 1 -12 -8 -12 -10 -391 -16 -2503 -3 -1161 -6 -1106 51
-1168 35 -39 73 -57 116 -57 36 0 87 21 112 45 7 7 18 15 24 17 17 6 16 4193
0 4258 -7 25 -13 50 -14 56 -2 6 -10 23 -20 37 -9 15 -17 31 -17 36 0 5 -3 11
-8 13 -4 2 -30 32 -57 68 -28 36 -54 68 -60 72 -5 4 -7 8 -3 8 3 0 -6 13 -20
28 -15 15 -41 47 -59 70 l-31 43 0 -158z"/>
<path d="M6012 11972 c-23 -32 -54 -71 -67 -87 -14 -17 -28 -35 -32 -40 -5 -6
-24 -30 -44 -55 -43 -55 -83 -120 -74 -120 4 0 3 -6 -3 -13 -20 -24 -27 -122
-26 -387 0 -177 -3 -267 -10 -272 -8 -5 -8 -8 0 -8 11 0 13 -827 2 -846 -4 -6
-4 -14 0 -18 11 -12 9 -270 -3 -278 -6 -5 -6 -8 0 -8 6 0 9 -58 8 -157 -4
-192 -4 -158 -1 -281 2 -56 -1 -102 -6 -102 -5 0 -4 -6 1 -12 10 -16 10 -188
0 -206 -5 -6 -5 -12 0 -12 4 0 8 -50 8 -110 0 -61 -4 -110 -8 -110 -5 0 -5 -6
-1 -12 10 -17 11 -518 1 -525 -4 -2 -4 -10 0 -16 4 -7 8 -221 9 -476 1 -410 3
-465 17 -473 9 -4 22 -14 29 -21 22 -21 61 -34 98 -33 35 1 110 32 110 45 0 4
8 16 18 27 17 18 29 40 40 74 9 28 8 1325 -1 1338 -5 6 -6 12 -1 12 5 0 9 25
9 55 0 30 -4 55 -8 55 -5 0 -5 5 -1 11 10 17 11 60 2 87 -4 13 -5 21 0 19 6
-4 7 92 2 243 0 14 0 43 0 64 0 21 -2 41 -4 43 -3 3 -1 15 4 28 5 13 6 25 3
28 -4 5 -10 1084 -12 2265 -1 188 -4 342 -8 342 -5 -1 -27 -27 -51 -58z"/>
<path d="M5145 9584 c-22 -8 -49 -18 -60 -24 -11 -5 -37 -16 -58 -24 -58 -23
-110 -86 -122 -149 -2 -10 -7 -28 -11 -39 -15 -47 -13 75 -29 -2063 -28 -3740
-33 -4877 -21 -4945 16 -94 65 -171 121 -194 11 -4 57 -9 103 -12 l82 -3 1
157 c0 86 2 411 4 722 17 2744 23 3819 30 5080 3 591 7 1170 8 1287 1 117 -1
214 -3 216 -3 3 -23 -2 -45 -9z"/>
<path d="M8467 9398 c1 -106 4 -624 7 -1151 3 -526 8 -962 11 -967 3 -6 2 -10
-4 -10 -6 0 -8 -9 -3 -22 4 -13 6 -38 4 -55 -3 -41 -3 -38 1 -150 2 -59 -1
-93 -8 -93 -7 0 -7 -3 0 -8 12 -8 13 -41 2 -59 -5 -7 -5 -13 0 -13 4 0 9 -179
10 -397 4 -1018 14 -2237 17 -2241 3 -2 1 -14 -4 -27 -5 -13 -6 -26 -3 -29 10
-10 11 -66 1 -66 -5 0 -6 -5 -3 -11 11 -17 12 -163 2 -176 -5 -7 -6 -13 -1
-13 5 0 10 -207 11 -463 1 -254 3 -654 4 -890 l3 -428 81 5 c44 2 92 9 106 14
42 16 75 56 101 119 l23 58 0 922 c0 508 -4 923 -8 923 -5 0 -5 5 -1 12 9 14
9 152 0 166 -3 6 -3 13 2 16 4 2 5 34 2 70 -3 36 -2 66 3 66 4 0 3 9 -3 19 -7
14 -7 22 0 26 6 4 8 11 4 16 -5 9 -9 538 -18 2219 -1 273 -5 500 -8 506 -4 5
-3 16 2 23 4 8 4 27 0 42 -5 16 -5 29 -1 29 8 0 5 65 -4 80 -3 6 -2 10 2 10 9
0 8 98 -1 107 -3 3 -1 13 4 23 5 10 7 20 4 23 -3 3 -8 331 -10 729 -4 733 -8
925 -19 988 -11 58 -44 122 -79 155 -30 26 -135 73 -206 90 l-25 6 2 -193z"/>
<path d="M9450 6208 c-1 -95 -3 -291 -4 -435 0 -145 -5 -263 -9 -263 -4 0 -3
-9 3 -19 6 -12 6 -22 1 -26 -10 -5 -7 -37 4 -55 3 -6 2 -10 -3 -10 -10 0 -10
-30 1 -46 3 -6 4 -14 0 -18 -4 -3 -8 -113 -9 -244 -2 -130 -5 -397 -8 -592 -3
-195 -8 -533 -11 -750 -4 -217 -7 -502 -9 -633 -1 -130 -6 -240 -9 -244 -4 -3
-2 -12 4 -20 9 -9 8 -13 0 -13 -8 0 -9 -6 -3 -17 5 -10 6 -29 2 -43 -4 -14 -3
-33 2 -42 5 -10 5 -18 1 -18 -4 0 -9 -120 -9 -268 -1 -147 -3 -415 -5 -597
l-4 -330 55 -27 c30 -15 68 -28 83 -28 62 0 133 52 157 115 6 17 10 30 8 31
-2 0 2 7 8 15 12 15 14 53 19 582 2 164 5 301 9 304 3 3 1 14 -5 24 -6 13 -6
19 0 19 7 0 7 8 1 24 -5 13 -6 27 -3 30 3 3 7 170 9 371 1 201 5 369 9 374 3
5 1 12 -5 16 -6 4 -7 11 -4 17 4 5 8 141 9 302 7 620 23 1774 26 1801 0 6 -1
25 -4 43 -2 17 -1 32 3 32 4 0 4 16 0 35 -4 19 -5 35 -1 35 3 0 6 16 6 35 0
19 -3 35 -7 35 -4 0 -5 7 -2 15 13 32 10 410 -3 459 -23 89 -92 166 -149 166
-11 0 -24 3 -28 7 -3 4 -12 8 -19 9 -7 1 -33 5 -58 9 l-46 7 -3 -174z"/>
<path d="M4076 6320 c-102 -38 -137 -66 -172 -137 l-28 -58 1 -215 c1 -118 2
-224 3 -235 1 -11 -1 -35 -4 -52 -3 -18 -1 -33 3 -33 5 0 5 -17 1 -37 -5 -20
-6 -41 -3 -46 8 -14 9 -87 0 -87 -5 0 -5 -5 -1 -11 3 -6 8 -156 10 -332 2
-177 6 -504 9 -727 7 -581 16 -1248 20 -1595 2 -165 4 -302 5 -305 1 -3 1 -30
0 -60 -1 -30 -1 -59 -1 -65 0 -5 3 -165 5 -355 3 -190 8 -355 10 -367 18 -86
105 -194 139 -171 1 1 12 -4 24 -10 14 -8 24 -9 28 -2 4 6 10 8 15 5 9 -6 102
33 111 47 4 6 5 89 3 186 -2 98 -5 371 -8 607 -3 237 -6 430 -7 430 0 0 -2
110 -4 245 -4 254 -12 828 -20 1365 -3 171 -7 472 -10 670 -3 198 -7 369 -9
380 -2 11 1 30 5 43 5 12 5 22 1 22 -4 0 -8 102 -9 228 -4 600 -7 702 -23 702
-8 -1 -50 -14 -94 -30z"/>
<path d="M5904 4530 c-17 -4 -38 -6 -48 -4 -9 1 -20 -5 -23 -14 -3 -9 -14 -26
-23 -37 -25 -28 -48 -103 -46 -148 1 -20 -2 -37 -7 -37 -4 0 -5 -6 -1 -12 5
-7 7 -40 6 -73 -4 -180 -15 -1614 -13 -1798 l1 -57 53 -24 c89 -41 139 -35
199 22 72 69 69 26 70 1031 0 661 3 901 12 903 6 2 57 3 114 3 l103 -1 -28 26
c-15 14 -35 30 -44 36 -9 5 -32 21 -50 36 -19 15 -65 52 -103 82 -74 58 -122
76 -172 66z"/>
<path d="M7660 4496 c-14 -6 -40 -24 -58 -41 l-34 -30 4 -975 c4 -887 6 -979
21 -1019 24 -62 78 -109 120 -102 4 0 7 -3 7 -8 0 -6 12 -6 30 -1 17 5 31 9
33 9 14 -1 56 23 71 40 40 45 52 109 50 267 -2 82 -6 304 -9 494 -3 190 -8
482 -10 650 -8 491 -12 573 -24 604 -37 92 -129 143 -201 112z"/>
<path d="M3164 4474 c-4 -16 -10 -33 -14 -39 -4 -5 -15 -35 -25 -65 -10 -30
-20 -59 -24 -65 -3 -5 -6 -15 -7 -21 -1 -6 -9 -27 -17 -45 -8 -19 -30 -72 -47
-119 -18 -47 -37 -96 -43 -110 -13 -31 -11 -26 -27 -82 -8 -27 -18 -48 -23
-48 -4 0 -6 -4 -3 -9 3 -4 1 -23 -5 -42 -22 -75 -24 -114 -21 -359 2 -140 4
-355 5 -477 1 -123 4 -223 7 -223 3 0 6 -57 7 -128 1 -141 12 -657 13 -657 2
0 10 -363 14 -598 2 -126 6 -231 9 -234 3 -3 2 -16 -3 -29 -5 -13 -6 -24 -2
-24 4 0 8 -62 8 -138 2 -226 13 -555 20 -591 7 -42 47 -129 71 -157 16 -18
136 -94 149 -94 3 0 18 -9 34 -20 15 -11 30 -17 34 -13 3 3 6 1 6 -6 0 -7 5
-11 12 -9 12 4 15 158 4 177 -4 5 -2 12 4 16 6 4 8 11 4 16 -6 10 -10 167 -18
645 -2 116 -6 217 -10 223 -4 6 -2 11 4 11 8 0 8 6 0 20 -8 14 -8 20 0 20 6 0
8 5 4 11 -3 6 -8 84 -10 173 -4 184 -10 439 -20 801 -4 138 -7 283 -8 322 0
40 -5 73 -9 73 -4 0 -4 8 0 18 5 9 8 28 6 42 -1 14 -4 104 -7 200 -7 232 -14
443 -21 620 -3 80 -8 213 -10 295 -3 83 -7 213 -10 290 -2 77 -7 209 -10 294
-2 85 -7 156 -9 159 -3 2 -8 -9 -12 -24z"/>
<path d="M10439 4429 c-1 -2 -2 -42 -4 -89 -1 -47 -5 -177 -9 -290 -4 -113 -9
-266 -11 -340 -2 -74 -7 -227 -10 -340 -4 -113 -8 -261 -10 -330 -2 -69 -6
-231 -10 -360 -3 -129 -8 -309 -11 -400 -2 -91 -7 -264 -9 -385 -3 -121 -7
-308 -10 -415 -5 -186 -8 -333 -21 -1020 -3 -168 -7 -334 -8 -370 -3 -89 0
-94 38 -71 17 10 56 32 86 47 106 55 153 106 185 199 15 45 16 57 30 760 3
143 7 350 10 460 2 110 7 322 10 470 3 149 7 353 10 455 2 102 7 316 10 475 6
292 15 621 17 640 2 25 -16 181 -25 210 -3 11 -8 31 -11 45 -2 14 -15 54 -29
90 -47 125 -168 445 -192 505 -4 11 -9 26 -11 33 -3 14 -13 29 -15 21z"/>
<path d="M6795 3970 c-3 -4 -16 -11 -30 -14 -32 -8 -68 -45 -86 -87 -27 -66
-9 -1365 20 -1417 11 -20 109 -53 146 -48 61 8 105 42 129 101 16 40 15 1326
-1 1366 -12 26 -77 89 -93 89 -14 0 -17 0 -50 10 -16 5 -32 5 -35 0z"/>
<path d="M2141 2780 c-13 -11 -29 -20 -37 -20 -8 0 -14 -4 -14 -10 0 -5 -5
-10 -11 -10 -14 0 -33 -23 -59 -72 -21 -38 -21 -133 -5 -738 11 -412 16 -615
20 -806 5 -252 13 -292 68 -348 25 -25 38 -30 88 -32 89 -4 112 6 128 52 40
116 43 203 26 589 -6 115 -6 130 -4 158 0 6 -2 93 -5 192 -4 99 -8 245 -11
325 -2 80 -7 234 -10 343 -8 243 -15 270 -108 370 -31 32 -35 32 -66 7z"/>
<path d="M11395 2723 c-11 -15 -27 -34 -35 -43 -67 -69 -70 -94 -85 -640 -4
-142 -14 -454 -20 -625 -12 -332 -16 -471 -16 -480 0 -40 14 -120 27 -150 8
-19 12 -35 10 -35 -3 0 2 -12 9 -27 10 -19 23 -28 42 -29 16 -1 44 -4 64 -7
53 -8 107 26 138 86 27 53 26 42 35 427 3 118 8 278 11 355 10 297 18 668 19
845 1 225 -4 242 -103 308 -35 23 -67 42 -70 42 -3 0 -15 -12 -26 -27z"/>
</g>
</svg>
