<?xml version="1.0" encoding="utf-8"?>
<!-- Generator: Adobe Illustrator 24.0.1, SVG Export Plug-In . SVG Version: 6.00 Build 0)  -->
<svg version="1.1" id="Layer_1" xmlns="http://www.w3.org/2000/svg" xmlns:xlink="http://www.w3.org/1999/xlink" x="0px" y="0px"
	 viewBox="0 0 1046.2 650" style="enable-background:new 0 0 1046.2 650;" xml:space="preserve">
<style type="text/css">
	.st0{fill:#B22234;}
	.st1{stroke:#FFFFFF;stroke-width:50;stroke-miterlimit:10;}
	.st2{fill:#3C3B6E;}
	.st3{fill:#FFFFFF;}
</style>
<rect class="st0" width="1046.2" height="650"/>
<path class="st1" d="M0,75h1046.2 M1046.2,175H0 M0,275h1046.2 M1046.2,375H0 M0,475h1046.2 M1046.2,575H0"/>
<rect class="st2" width="494" height="350"/>
<g>
	<g id="s18">
		<g id="s9">
			<g id="s5">
				<g id="s4">
					<path id="s" class="st3" d="M41.2,15l11.8,36.2L22.1,28.8h38L29.4,51.2L41.2,15z"/>
					<g>
						<path id="s_1_" class="st3" d="M41.2,85l11.8,36.2L22.1,98.8h38l-30.8,22.4L41.2,85z"/>
					</g>
					<g>
						<path id="s_2_" class="st3" d="M41.2,155l11.8,36.2l-30.8-22.4h38l-30.8,22.4L41.2,155z"/>
					</g>
					<g>
						<path id="s_3_" class="st3" d="M41.2,225l11.8,36.2l-30.8-22.4h38l-30.8,22.4L41.2,225z"/>
					</g>
				</g>
				<g>
					<path id="s_4_" class="st3" d="M41.2,295l11.8,36.2l-30.8-22.4h38l-30.8,22.4L41.2,295z"/>
				</g>
			</g>
			<g>
				<g id="s4_1_">
					<path id="s_5_" class="st3" d="M82.3,50l11.8,36.2L63.3,63.8h38L70.6,86.2L82.3,50z"/>
					<g>
						<path id="s_6_" class="st3" d="M82.3,120l11.8,36.2l-30.8-22.4h38l-30.8,22.4L82.3,120z"/>
					</g>
					<g>
						<path id="s_7_" class="st3" d="M82.3,190l11.8,36.2l-30.8-22.4h38l-30.8,22.4L82.3,190z"/>
					</g>
					<g>
						<path id="s_8_" class="st3" d="M82.3,260l11.8,36.2l-30.8-22.4h38l-30.8,22.4L82.3,260z"/>
					</g>
				</g>
			</g>
		</g>
		<g>
			<g id="s9_1_">
				<g id="s5_1_">
					<g id="s4_2_">
						<path id="s_9_" class="st3" d="M123.5,15l11.8,36.2l-30.8-22.4h38l-30.8,22.4L123.5,15z"/>
						<g>
							<path id="s_10_" class="st3" d="M123.5,85l11.8,36.2l-30.8-22.4h38l-30.8,22.4L123.5,85z"/>
						</g>
						<g>
							<path id="s_11_" class="st3" d="M123.5,155l11.8,36.2l-30.8-22.4h38l-30.8,22.4L123.5,155z"/>
						</g>
						<g>
							<path id="s_12_" class="st3" d="M123.5,225l11.8,36.2l-30.8-22.4h38l-30.8,22.4L123.5,225z"/>
						</g>
					</g>
					<g>
						<path id="s_13_" class="st3" d="M123.5,295l11.8,36.2l-30.8-22.4h38l-30.8,22.4L123.5,295z"/>
					</g>
				</g>
				<g>
					<g id="s4_3_">
						<path id="s_14_" class="st3" d="M164.7,50l11.8,36.2l-30.8-22.4h38l-30.8,22.4L164.7,50z"/>
						<g>
							<path id="s_15_" class="st3" d="M164.7,120l11.8,36.2l-30.8-22.4h38l-30.8,22.4L164.7,120z"/>
						</g>
						<g>
							<path id="s_16_" class="st3" d="M164.7,190l11.8,36.2l-30.8-22.4h38l-30.8,22.4L164.7,190z"/>
						</g>
						<g>
							<path id="s_17_" class="st3" d="M164.7,260l11.8,36.2l-30.8-22.4h38l-30.8,22.4L164.7,260z"/>
						</g>
					</g>
				</g>
			</g>
		</g>
	</g>
	<g>
		<g id="s18_1_">
			<g id="s9_2_">
				<g id="s5_2_">
					<g id="s4_4_">
						<path id="s_18_" class="st3" d="M205.8,15l11.8,36.2l-30.8-22.4h38l-30.8,22.4L205.8,15z"/>
						<g>
							<path id="s_19_" class="st3" d="M205.8,85l11.8,36.2l-30.8-22.4h38l-30.8,22.4L205.8,85z"/>
						</g>
						<g>
							<path id="s_20_" class="st3" d="M205.8,155l11.8,36.2l-30.8-22.4h38l-30.8,22.4L205.8,155z"/>
						</g>
						<g>
							<path id="s_21_" class="st3" d="M205.8,225l11.8,36.2l-30.8-22.4h38l-30.8,22.4L205.8,225z"/>
						</g>
					</g>
					<g>
						<path id="s_22_" class="st3" d="M205.8,295l11.8,36.2l-30.8-22.4h38l-30.8,22.4L205.8,295z"/>
					</g>
				</g>
				<g>
					<g id="s4_5_">
						<path id="s_23_" class="st3" d="M247,50l11.8,36.2L228,63.8h38l-30.8,22.4L247,50z"/>
						<g>
							<path id="s_24_" class="st3" d="M247,120l11.8,36.2L228,133.8h38l-30.8,22.4L247,120z"/>
						</g>
						<g>
							<path id="s_25_" class="st3" d="M247,190l11.8,36.2L228,203.8h38l-30.8,22.4L247,190z"/>
						</g>
						<g>
							<path id="s_26_" class="st3" d="M247,260l11.8,36.2L228,273.8h38l-30.8,22.4L247,260z"/>
						</g>
					</g>
				</g>
			</g>
			<g>
				<g id="s9_3_">
					<g id="s5_3_">
						<g id="s4_6_">
							<path id="s_27_" class="st3" d="M288.2,15l11.8,36.2l-30.8-22.4h38l-30.8,22.4L288.2,15z"/>
							<g>
								<path id="s_28_" class="st3" d="M288.2,85l11.8,36.2l-30.8-22.4h38l-30.8,22.4L288.2,85z"/>
							</g>
							<g>
								<path id="s_29_" class="st3" d="M288.2,155l11.8,36.2l-30.8-22.4h38l-30.8,22.4L288.2,155z"/>
							</g>
							<g>
								<path id="s_30_" class="st3" d="M288.2,225l11.8,36.2l-30.8-22.4h38l-30.8,22.4L288.2,225z"/>
							</g>
						</g>
						<g>
							<path id="s_31_" class="st3" d="M288.2,295l11.8,36.2l-30.8-22.4h38l-30.8,22.4L288.2,295z"/>
						</g>
					</g>
					<g>
						<g id="s4_7_">
							<path id="s_32_" class="st3" d="M329.3,50l11.8,36.2l-30.8-22.4h38l-30.8,22.4L329.3,50z"/>
							<g>
								<path id="s_33_" class="st3" d="M329.3,120l11.8,36.2l-30.8-22.4h38l-30.8,22.4L329.3,120z"/>
							</g>
							<g>
								<path id="s_34_" class="st3" d="M329.3,190l11.8,36.2l-30.8-22.4h38l-30.8,22.4L329.3,190z"/>
							</g>
							<g>
								<path id="s_35_" class="st3" d="M329.3,260l11.8,36.2l-30.8-22.4h38l-30.8,22.4L329.3,260z"/>
							</g>
						</g>
					</g>
				</g>
			</g>
		</g>
	</g>
	<g>
		<g id="s9_4_">
			<g id="s5_4_">
				<g id="s4_8_">
					<path id="s_36_" class="st3" d="M370.5,15l11.8,36.2l-30.8-22.4h38l-30.8,22.4L370.5,15z"/>
					<g>
						<path id="s_37_" class="st3" d="M370.5,85l11.8,36.2l-30.8-22.4h38l-30.8,22.4L370.5,85z"/>
					</g>
					<g>
						<path id="s_38_" class="st3" d="M370.5,155l11.8,36.2l-30.8-22.4h38l-30.8,22.4L370.5,155z"/>
					</g>
					<g>
						<path id="s_39_" class="st3" d="M370.5,225l11.8,36.2l-30.8-22.4h38l-30.8,22.4L370.5,225z"/>
					</g>
				</g>
				<g>
					<path id="s_40_" class="st3" d="M370.5,295l11.8,36.2l-30.8-22.4h38l-30.8,22.4L370.5,295z"/>
				</g>
			</g>
			<g>
				<g id="s4_9_">
					<path id="s_41_" class="st3" d="M411.7,50l11.8,36.2l-30.8-22.4h38l-30.8,22.4L411.7,50z"/>
					<g>
						<path id="s_42_" class="st3" d="M411.7,120l11.8,36.2l-30.8-22.4h38l-30.8,22.4L411.7,120z"/>
					</g>
					<g>
						<path id="s_43_" class="st3" d="M411.7,190l11.8,36.2l-30.8-22.4h38l-30.8,22.4L411.7,190z"/>
					</g>
					<g>
						<path id="s_44_" class="st3" d="M411.7,260l11.8,36.2l-30.8-22.4h38l-30.8,22.4L411.7,260z"/>
					</g>
				</g>
			</g>
		</g>
	</g>
	<g>
		<g id="s5_5_">
			<g id="s4_10_">
				<path id="s_45_" class="st3" d="M452.8,15l11.8,36.2l-30.8-22.4h38l-30.8,22.4L452.8,15z"/>
				<g>
					<path id="s_46_" class="st3" d="M452.8,85l11.8,36.2l-30.8-22.4h38l-30.8,22.4L452.8,85z"/>
				</g>
				<g>
					<path id="s_47_" class="st3" d="M452.8,155l11.8,36.2l-30.8-22.4h38l-30.8,22.4L452.8,155z"/>
				</g>
				<g>
					<path id="s_48_" class="st3" d="M452.8,225l11.8,36.2l-30.8-22.4h38l-30.8,22.4L452.8,225z"/>
				</g>
			</g>
			<g>
				<path id="s_49_" class="st3" d="M452.8,295l11.8,36.2l-30.8-22.4h38l-30.8,22.4L452.8,295z"/>
			</g>
		</g>
	</g>
</g>
</svg>
